<?xml version="1.0" encoding="utf-8"?>
<!-- Generator: Adobe Illustrator 27.5.0, SVG Export Plug-In . SVG Version: 6.00 Build 0)  -->
<svg version="1.1" xmlns="http://www.w3.org/2000/svg" xmlns:xlink="http://www.w3.org/1999/xlink" x="0px" y="0px"
	 viewBox="0 0 1200 1200" style="enable-background:new 0 0 1200 1200;" xml:space="preserve">
<g id="Graphic_Elements">
	<g>
		<path style="fill:#FFFFFF;" d="M860.931,153.125h-34.065h-0.87H582.533H360.531h-10.494h-11.106h-23.828
			c-13.807,0-25,11.193-25,25v694.336c0,13.807,11.193,25,25,25h9.628v124.414c0,10.195,6.191,19.37,15.647,23.185
			c3.032,1.223,6.204,1.816,9.348,1.816c6.663,0,13.2-2.665,18.007-7.653l27.287-28.312l27.286,28.312
			c0.394,0.408,0.803,0.795,1.219,1.173c0.108,0.098,0.216,0.194,0.326,0.29c0.387,0.339,0.781,0.667,1.185,0.979
			c0.038,0.03,0.075,0.062,0.113,0.091c0.439,0.335,0.889,0.649,1.346,0.952c0.118,0.078,0.236,0.154,0.355,0.23
			c0.405,0.259,0.815,0.506,1.232,0.74c0.068,0.038,0.135,0.08,0.203,0.117c0.475,0.261,0.96,0.502,1.449,0.73
			c0.123,0.057,0.247,0.112,0.371,0.167c0.42,0.188,0.844,0.364,1.272,0.528c0.093,0.035,0.185,0.074,0.278,0.109
			c0.504,0.186,1.013,0.353,1.527,0.506c0.124,0.037,0.248,0.07,0.372,0.104c0.433,0.121,0.868,0.231,1.307,0.329
			c0.112,0.025,0.224,0.053,0.336,0.077c0.523,0.109,1.05,0.201,1.579,0.277c0.119,0.017,0.238,0.03,0.358,0.045
			c0.444,0.057,0.889,0.102,1.336,0.135c0.126,0.009,0.253,0.021,0.379,0.028c0.487,0.029,0.974,0.047,1.463,0.047
			c0.049,0,0.098-0.003,0.147-0.003c0.099-0.001,0.198-0.005,0.297-0.007c0.473-0.009,0.946-0.031,1.419-0.066
			c0.108-0.008,0.216-0.013,0.323-0.023c0.531-0.047,1.062-0.112,1.592-0.193c0.12-0.018,0.24-0.04,0.361-0.061
			c0.481-0.081,0.962-0.175,1.44-0.285c0.075-0.017,0.15-0.031,0.225-0.049c0.529-0.126,1.055-0.275,1.579-0.437
			c0.125-0.039,0.25-0.08,0.375-0.12c0.533-0.174,1.063-0.36,1.589-0.572c9.455-3.814,15.647-12.989,15.647-23.185V897.461h117.228
			h243.463h0.87h34.065c27,0,48.967-21.967,48.967-48.967V202.092C909.898,175.092,887.931,153.125,860.931,153.125z"/>
		<g>
			<path style="fill:#EADF9F;" d="M860.931,872.461H350.037V178.125h510.893c13.237,0,23.967,10.73,23.967,23.967v646.402
				C884.898,861.731,874.167,872.461,860.931,872.461z"/>
			<polygon style="fill:#6C7C5A;" points="440.305,1021.875 395.018,974.883 349.731,1021.875 349.731,872.461 440.305,872.461 			
				"/>
			<path style="fill:#8C6147;" d="M825.996,872.461H315.102V178.125h510.893c13.237,0,23.967,10.73,23.967,23.967v646.402
				C849.963,861.731,839.232,872.461,825.996,872.461z"/>
			<g>
				<rect x="338.931" y="178.125" style="fill:#EADF9F;" width="21.6" height="639.226"/>
			</g>
			<g>
				<rect x="338.931" y="717.811" style="fill:#EADF9F;" width="21.6" height="154.65"/>
			</g>
			<path style="fill:#8A573C;" d="M849.963,854.816V195.77c-2.777-10.164-12.052-17.645-23.097-17.645H582.533v694.336h244.334
				C837.911,872.461,847.186,864.98,849.963,854.816z"/>
			<polygon style="fill:#597051;" points="395.018,872.461 395.018,974.883 440.305,1021.875 440.305,872.461 			"/>
		</g>
	</g>
</g>
</svg>
